<svg width="1024" height="1024" xmlns="http://www.w3.org/2000/svg">
 <g id="Layer_1">
  <title>Layer 1</title>
  <ellipse stroke="#003aaf" stroke-width="31" ry="484.00004" rx="484.00004" id="svg_1" cy="516.00008" cx="514" fill="#0072ff"/>
  <g stroke="null">
   <path stroke="null" clip-rule="evenodd" d="m456.69045,822.82133a64.23295,64.23295 0 0 0 118.61685,0l214.10984,-513.86361a64.23295,64.23295 0 0 0 -118.61685,-49.41655l-154.80141,371.56622l-154.80141,-371.56622a64.23295,64.23295 0 0 0 -118.61685,49.41655l214.10984,513.86361zm59.30843,-3.29729a21.41098,21.41098 0 0 1 -19.76234,-13.16776l-214.10984,-513.86361a21.41098,21.41098 0 1 1 39.52468,-16.48646l174.58516,419.01296a21.41098,21.41098 0 0 0 39.52468,0l174.58516,-419.01296a21.41098,21.41098 0 0 1 39.52468,16.48646l-214.10984,513.86361a21.41098,21.41098 0 0 1 -19.76234,13.16776" fill-rule="evenodd" fill="#ffffff"/>
  </g>
 </g>

</svg>